<svg width="321" height="124" viewBox="0 0 321 124" fill="none" xmlns="http://www.w3.org/2000/svg">
<path d="M39.9 42.4C44.1667 42.4 47.9667 43.2667 51.3 45C54.7 46.6667 57.3667 49.2667 59.3 52.8C61.2333 56.2667 62.2 60.7333 62.2 66.2V97H46.6V68.6C46.6 64.2667 45.6333 61.0667 43.7 59C41.8333 56.9333 39.1667 55.9 35.7 55.9C33.2333 55.9 31 56.4333 29 57.5C27.0667 58.5 25.5333 60.0667 24.4 62.2C23.3333 64.3333 22.8 67.0667 22.8 70.4V97H7.2V22.8H22.8V58.1L19.3 53.6C21.2333 50 24 47.2333 27.6 45.3C31.2 43.3667 35.3 42.4 39.9 42.4ZM103.431 97.8C97.2979 97.8 91.8979 96.6 87.2313 94.2C82.6313 91.8 79.0646 88.5333 76.5313 84.4C73.9979 80.2 72.7313 75.4333 72.7313 70.1C72.7313 64.7 73.9646 59.9333 76.4313 55.8C78.9646 51.6 82.3979 48.3333 86.7313 46C91.0646 43.6 95.9646 42.4 101.431 42.4C106.698 42.4 111.431 43.5333 115.631 45.8C119.898 48 123.265 51.2 125.731 55.4C128.198 59.5333 129.431 64.5 129.431 70.3C129.431 70.9 129.398 71.6 129.331 72.4C129.265 73.1333 129.198 73.8333 129.131 74.5H85.4313V65.4H120.931L114.931 68.1C114.931 65.3 114.365 62.8667 113.231 60.8C112.098 58.7333 110.531 57.1333 108.531 56C106.531 54.8 104.198 54.2 101.531 54.2C98.8646 54.2 96.4979 54.8 94.4313 56C92.4313 57.1333 90.8646 58.7667 89.7313 60.9C88.5979 62.9667 88.0313 65.4333 88.0313 68.3V70.7C88.0313 73.6333 88.6646 76.2333 89.9313 78.5C91.2646 80.7 93.0979 82.4 95.4313 83.6C97.8313 84.7333 100.631 85.3 103.831 85.3C106.698 85.3 109.198 84.8667 111.331 84C113.531 83.1333 115.531 81.8333 117.331 80.1L125.631 89.1C123.165 91.9 120.065 94.0667 116.331 95.6C112.598 97.0667 108.298 97.8 103.431 97.8ZM139.817 97V22.8H155.417V97H139.817ZM201.695 97.8C197.162 97.8 193.195 96.8 189.795 94.8C186.395 92.8 183.729 89.7667 181.795 85.7C179.929 81.5667 178.995 76.3667 178.995 70.1C178.995 63.7667 179.895 58.5667 181.695 54.5C183.495 50.4333 186.095 47.4 189.495 45.4C192.895 43.4 196.962 42.4 201.695 42.4C206.762 42.4 211.295 43.5667 215.295 45.9C219.362 48.1667 222.562 51.3667 224.895 55.5C227.295 59.6333 228.495 64.5 228.495 70.1C228.495 75.7667 227.295 80.6667 224.895 84.8C222.562 88.9333 219.362 92.1333 215.295 94.4C211.295 96.6667 206.762 97.8 201.695 97.8ZM169.895 116.4V43.2H184.795V54.2L184.495 70.2L185.495 86.1V116.4H169.895ZM198.995 85C201.595 85 203.895 84.4 205.895 83.2C207.962 82 209.595 80.3 210.795 78.1C212.062 75.8333 212.695 73.1667 212.695 70.1C212.695 66.9667 212.062 64.3 210.795 62.1C209.595 59.9 207.962 58.2 205.895 57C203.895 55.8 201.595 55.2 198.995 55.2C196.395 55.2 194.062 55.8 191.995 57C189.929 58.2 188.295 59.9 187.095 62.1C185.895 64.3 185.295 66.9667 185.295 70.1C185.295 73.1667 185.895 75.8333 187.095 78.1C188.295 80.3 189.929 82 191.995 83.2C194.062 84.4 196.395 85 198.995 85Z" fill="black"/>
<path d="M240.038 72.7L236.938 27H255.538L252.438 72.7H240.038ZM246.238 97.8C243.438 97.8 241.138 96.9 239.338 95.1C237.538 93.3 236.638 91.1667 236.638 88.7C236.638 86.1667 237.538 84.0667 239.338 82.4C241.138 80.6667 243.438 79.8 246.238 79.8C249.105 79.8 251.405 80.6667 253.138 82.4C254.938 84.0667 255.838 86.1667 255.838 88.7C255.838 91.1667 254.938 93.3 253.138 95.1C251.405 96.9 249.105 97.8 246.238 97.8Z" fill="#F37221"/>
<path d="M268.945 72.7L265.845 27H284.445L281.345 72.7H268.945ZM275.145 97.8C272.345 97.8 270.045 96.9 268.245 95.1C266.445 93.3 265.545 91.1667 265.545 88.7C265.545 86.1667 266.445 84.0667 268.245 82.4C270.045 80.6667 272.345 79.8 275.145 79.8C278.011 79.8 280.311 80.6667 282.045 82.4C283.845 84.0667 284.745 86.1667 284.745 88.7C284.745 91.1667 283.845 93.3 282.045 95.1C280.311 96.9 278.011 97.8 275.145 97.8Z" fill="#5E17EB"/>
<path d="M246 100C246 101.313 246.375 102.614 247.104 103.827C247.832 105.04 248.901 106.142 250.247 107.071C251.593 108 253.192 108.736 254.951 109.239C256.71 109.741 258.596 110 260.5 110C262.404 110 264.29 109.741 266.049 109.239C267.808 108.736 269.407 108 270.753 107.071C272.099 106.142 273.168 105.04 273.896 103.827C274.625 102.614 275 101.313 275 100L260.5 100H246Z" fill="black"/>
</svg>
